<svg width="17" height="11" viewBox="0 0 17 11" fill="none" xmlns="http://www.w3.org/2000/svg">
<path d="M2 6.66699C2.55225 6.66703 3 7.11473 3 7.66699V9.66699C2.99982 10.2191 2.55214 10.667 2 10.667H1C0.447824 10.667 0.000175983 10.2191 0 9.66699V7.66699C0 7.11471 0.447715 6.66699 1 6.66699H2ZM6.66699 4.66699C7.21909 4.66721 7.66699 5.11484 7.66699 5.66699V9.66699C7.66682 10.219 7.21898 10.6668 6.66699 10.667H5.66699C5.11482 10.667 4.66717 10.2191 4.66699 9.66699V5.66699C4.66699 5.11471 5.11471 4.66699 5.66699 4.66699H6.66699ZM11.333 2.33301C11.8852 2.33301 12.3328 2.78087 12.333 3.33301V9.66699C12.3328 10.2191 11.8852 10.667 11.333 10.667H10.333C9.78094 10.6669 9.33318 10.219 9.33301 9.66699V3.33301C9.33318 2.78095 9.78094 2.33314 10.333 2.33301H11.333ZM16 0C16.5522 4.22607e-05 17 0.447741 17 1V9.66699C16.9998 10.2191 16.5521 10.667 16 10.667H15C14.4478 10.667 14.0002 10.2191 14 9.66699V1C14 0.447715 14.4477 0 15 0H16Z" fill="white"/>
</svg>
