<svg width="16" height="11" viewBox="0 0 16 11" fill="none" xmlns="http://www.w3.org/2000/svg">
<path d="M5.44357 8.42662C6.72305 7.34446 8.5967 7.34451 9.87621 8.42662C9.94058 8.48483 9.97827 8.56711 9.98004 8.65388C9.98177 8.74059 9.94789 8.82431 9.886 8.88507L7.88275 10.9069C7.82411 10.9663 7.74378 10.9999 7.66038 11C7.57694 11 7.49672 10.9662 7.43801 10.9069L5.43378 8.88507C5.37193 8.82428 5.33796 8.74058 5.33974 8.65388C5.34157 8.56711 5.37915 8.48479 5.44357 8.42662ZM2.77028 5.72884C5.52695 3.16498 9.79586 3.16483 12.5524 5.72884C12.6146 5.78888 12.6504 5.87167 12.6514 5.95806C12.6523 6.04444 12.6181 6.12789 12.5573 6.18924L11.3985 7.35985C11.2792 7.47913 11.0869 7.48178 10.9645 7.36573C10.0594 6.54608 8.88149 6.09229 7.66038 6.09226C6.43993 6.09277 5.26286 6.54653 4.35819 7.36573C4.23575 7.48206 4.04261 7.47935 3.92325 7.35985L2.76538 6.18924C2.70443 6.12797 2.67053 6.04449 2.67134 5.95806C2.67228 5.87167 2.70812 5.78886 2.77028 5.72884ZM0.0960066 3.03889C4.32407 -1.01304 10.9946 -1.01289 15.2228 3.03889C15.2839 3.09903 15.3192 3.18139 15.3198 3.26713C15.3203 3.35289 15.2861 3.43547 15.2257 3.49636L14.0659 4.66696C13.9464 4.78696 13.7522 4.78811 13.631 4.6699C12.0202 3.13872 9.88279 2.28481 7.66038 2.28461C5.43749 2.2846 3.29894 3.13838 1.68784 4.6699C1.5666 4.78832 1.3723 4.78724 1.2529 4.66696L0.0930678 3.49636C0.0327761 3.43543 -0.000556943 3.35286 7.04176e-06 3.26713C0.000625441 3.18136 0.0348074 3.099 0.0960066 3.03889Z" fill="white"/>
</svg>
